<svg xmlns="http://www.w3.org/2000/svg" viewBox="0 0 1600 520" preserveAspectRatio="xMidYMid slice">
  <defs>
    <linearGradient id="sky" x1="0" y1="0" x2="1" y2="1"><stop offset="0" stop-color="#fff1c7"/><stop offset="0.45" stop-color="#f8b544"/><stop offset="1" stop-color="#e86b18"/></linearGradient>
    <linearGradient id="water" x1="0" y1="0" x2="1" y2="0"><stop offset="0" stop-color="#0a4630"/><stop offset="1" stop-color="#053120"/></linearGradient>
    <linearGradient id="curve" x1="0" x2="1"><stop offset="0" stop-color="#004225"/><stop offset="0.52" stop-color="#057336"/><stop offset="1" stop-color="#ffc20e"/></linearGradient>
    <filter id="blur"><feGaussianBlur stdDeviation="18"/></filter>
  </defs>
  <rect width="1600" height="520" fill="url(#sky)"/>
  <circle cx="1320" cy="110" r="180" fill="#ffe6a0" opacity=".45"/>
  <path d="M0 335 C320 260 460 330 705 250 C980 162 1240 190 1600 120 L1600 520 L0 520Z" fill="#13324a" opacity=".12"/>
  <g opacity=".38" fill="#173247">
    <rect x="900" y="190" width="42" height="154" rx="4"/><rect x="955" y="150" width="58" height="194" rx="4"/><rect x="1032" y="218" width="45" height="126" rx="4"/><rect x="1092" y="170" width="84" height="174" rx="4"/><rect x="1198" y="228" width="48" height="116" rx="4"/><rect x="1265" y="190" width="70" height="154" rx="4"/>
  </g>
  <g stroke="#394757" stroke-width="8" fill="none" opacity=".82">
    <path d="M620 350 C820 292 1070 292 1600 312"/>
    <path d="M630 386 C830 338 1086 338 1600 360" stroke-width="18" opacity=".72"/>
  </g>
  <g fill="none" stroke="#273544" stroke-linecap="round">
    <path d="M1135 112 L1190 356" stroke-width="18"/><path d="M1248 112 L1190 356" stroke-width="18"/>
    <path d="M1138 112 H1248" stroke-width="24"/><path d="M1154 176 H1232" stroke-width="16"/><path d="M1168 242 H1215" stroke-width="14"/>
    <path d="M1190 154 C1050 210 925 280 756 356" stroke-width="2" opacity=".75"/>
    <path d="M1190 154 C1320 210 1430 260 1588 326" stroke-width="2" opacity=".75"/>
    <path d="M1190 194 C1068 242 980 296 815 362" stroke-width="2" opacity=".65"/>
    <path d="M1190 194 C1310 242 1405 292 1560 354" stroke-width="2" opacity=".65"/>
  </g>
  <rect y="348" width="1600" height="172" fill="url(#water)" opacity=".72"/>
  <path d="M0 0 H720 C640 118 585 210 555 320 C525 430 488 492 410 520 H0Z" fill="#003c25" opacity=".94"/>
  <path d="M0 0 H626 C590 115 540 215 494 305 C445 400 395 470 318 520 H0Z" fill="#005f35" opacity=".42"/>
  <path d="M585 -5 C505 135 475 250 430 353 C388 448 310 505 245 520" stroke="url(#curve)" stroke-width="46" fill="none" opacity=".95"/>
  <path d="M650 -5 C555 150 522 262 472 365 C422 466 342 510 292 520" stroke="#f05a24" stroke-width="18" fill="none" opacity=".88"/>
  <path d="M620 -5 C540 150 515 260 468 365 C420 472 345 510 300 520" stroke="#ffc20e" stroke-width="21" fill="none" opacity=".94"/>
  <g fill="#003c25" opacity=".28"><path d="M84 405 c28-80 94-100 130-44 c-47-18-83-5-130 44z"/><path d="M120 390 c12-94 86-135 140-88 c-54-4-86 20-140 88z"/></g>
</svg>
